<svg xmlns="http://www.w3.org/2000/svg" xmlns:xlink="http://www.w3.org/1999/xlink" version="1.1" x="0px" y="0px" viewBox="0 0 100 125" enable-background="new 0 0 100 100" xml:space="preserve"><g><g><path fill-rule="evenodd" clip-rule="evenodd" d="M22,56c-1.104,0-2,0.896-2,2s0.896,2,2,2h40v-4H22z"/></g></g><g><g><path fill-rule="evenodd" clip-rule="evenodd" d="M7,48c-1.104,0-2,0.896-2,2s0.896,2,2,2h72v-4H7z"/></g></g><g><g><path fill-rule="evenodd" clip-rule="evenodd" d="M14,41c-1.104,0-2,0.896-2,2s0.896,2,2,2h32v-4H14z"/></g></g><path fill="none" stroke="#000000" stroke-width="4" stroke-linecap="round" stroke-miterlimit="10" d="M36.399,33.4  c0-5.302,4.298-9.6,9.6-9.6s9.601,4.298,9.601,9.6S51.301,43,45.999,43"/><path fill="none" stroke="#000000" stroke-width="4" stroke-linecap="round" stroke-miterlimit="10" d="M64.947,35.949  c0-7.76,6.291-14.051,14.052-14.051s14.053,6.291,14.053,14.051C93.052,43.709,86.76,50,78.999,50"/><path fill="none" stroke="#000000" stroke-width="4" stroke-linecap="round" stroke-miterlimit="10" d="M60.999,59"/><path fill="none" stroke="#000000" stroke-width="4" stroke-linecap="round" stroke-miterlimit="10" d="M52.379,67.621  c0,5.313,4.308,9.621,9.621,9.621s9.621-4.308,9.621-9.621S67.313,58,62,58"/><text x="0" y="115" fill="#000000" font-size="5px" font-weight="bold" font-family="'Helvetica Neue', Helvetica, Arial-Unicode, Arial, Sans-serif">Created by Shashank Sahay</text><text x="0" y="120" fill="#000000" font-size="5px" font-weight="bold" font-family="'Helvetica Neue', Helvetica, Arial-Unicode, Arial, Sans-serif">from the Noun Project</text></svg>